<mxfile host="app.diagrams.net" modified="2024-01-26T13:31:31.688Z" agent="Mozilla/5.0 (iPad; CPU OS 17_2 like Mac OS X) AppleWebKit/605.1.15 (KHTML, like Gecko) CriOS/121.0.6167.66 Mobile/15E148 Safari/604.1" version="23.0.0" etag="_Wsf07nhjlKyw1WK5Inr" type="github">
  <diagram name="第 1 页" id="Qkfm3Boy9o21KNh55bbQ">
    <mxGraphModel>
      <root>
        <mxCell id="0" />
        <mxCell id="1" parent="0" />
      </root>
    </mxGraphModel>
  </diagram>
</mxfile>
